<?xml version="1.0" encoding="utf-8"?>
<!-- Generator: Adobe Illustrator 20.0.0, SVG Export Plug-In . SVG Version: 6.00 Build 0)  -->
<svg version="1.1" id="Layer_1" xmlns="http://www.w3.org/2000/svg" xmlns:xlink="http://www.w3.org/1999/xlink" x="0px" y="0px"
	 viewBox="0 0 2500 2500" style="enable-background:new 0 0 2500 2500;" xml:space="preserve">
<style type="text/css">
	.st0{fill:#FFFFFF;}
	.st1{display:none;fill:#FFFFFF;}
</style>
<path class="st0" d="M639.3,1473.4c-5.2-5.2-5.2-10.5,0-15.7c10.5-10.5,23.6-14.4,39.2-11.7c15.7,2.7,24.8,5.2,27.5,7.9
	c18.3,7.9,38.6,25.5,60.9,53c22.3,27.5,39.9,46.5,53,56.9c62.8,52.4,127,56.3,192.4,11.7c5.2-18.3,13.8-34,25.5-47.1
	c11.7-13.1,22.9-22.3,33.4-27.5s28.8-13.1,55-23.6c-86.4-7.9-156.4-22.9-210.1-45.2c-53.6-22.3-96.2-50.4-127.6-84.4
	c-41.9-47.1-67.4-108.6-76.6-184.6s-3.3-145.3,17.7-208.1c15.7-39.2,38-74.6,66.7-106c-20.9-65.5-17-140.1,11.7-223.8
	c83.8,5.2,159.7,34,227.7,86.4c130.9-34,267-35.3,408.4-3.9c18.3-13.1,46.5-29.4,84.4-49.1s85.7-30.7,143.3-33.4
	c10.5,28.8,17.7,62.8,21.6,102.1c3.9,39.3,1.9,75.9-5.9,109.9c60.2,62.8,91.6,146.6,94.3,251.3c0,83.8-14.4,153.1-43.2,208.1
	c-28.8,55-79.9,100.8-153.1,137.4c-49.7,23.6-115.2,38-196.3,43.2c36.7,18.3,63.5,37.3,80.5,56.9c17,19.6,28.1,50.4,33.4,92.2v123.7
	l3.9,119.7c7.9,13.1,17,24.2,27.5,33.4s19.6,15.7,27.5,19.6s10.5,9.8,7.9,17.7c-2.7,7.9-13.1,11.7-31.4,11.7
	c-44.5,0-79.9-15.7-106-47.1c-7.9-13.1-11.7-28.8-11.7-47.1v-188.5c0-20.9-5.2-36-15.7-45.2s-20.9-15-31.4-17.7v247.4
	c0,44.5,5.2,73.3,15.7,86.4s17,26.2,19.6,39.2c2.7,2.7,0.6,4.6-5.9,5.9c-6.5,1.3-17.7-0.6-33.4-5.9c-34-7.9-57.6-25.5-70.7-53
	s-19.6-56.9-19.6-88.4v-243.4h-51.1v243.4c0,31.4-6.5,61.5-19.6,90.3c-18.3,36.7-52.4,56.3-102.1,58.9c-7.9-2.7-11.7-5.2-11.7-7.9
	c2.7-2.7,10.5-15.7,23.6-39.2c2.7-5.2,5.9-15.7,9.8-31.4c3.9-15.7,5.9-34,5.9-55v-247.4c-10.5,2.7-20.3,8.5-29.4,17.7
	c-9.2,9.2-13.8,24.2-13.8,45.2V1858c0,18.3-3.9,34-11.7,47.1c-23.6,31.4-58.9,47.1-106,47.1c-18.3,0-28.8-3.9-31.4-11.7
	c-2.7-5.2-1.9-9.8,1.9-13.8s9.8-8.5,17.7-13.8c7.9-5.2,13.1-9.2,15.7-11.7c10.5-7.9,18.3-18.3,23.6-31.4c7.9-10.5,9.8-38,5.9-82.4
	s-4.6-73.3-1.9-86.4c-68,23.6-137.4,11.7-208.1-35.3c-20.9-20.9-41.9-51.1-62.8-90.3C717.8,1546.7,686.5,1512.7,639.3,1473.4
	L639.3,1473.4z"/>
<path class="st0" d="M1251.9,5.5C560.5,5.5,0,566,0,1257.4s560.5,1251.9,1251.9,1251.9s1251.9-560.5,1251.9-1251.9
	S1943.3,5.5,1251.9,5.5z M696,159.5c6.4,0,6.4,10,0,10S689.6,159.5,696,159.5z M685,143c6.4,0,6.4,10,0,10S678.6,143,685,143z
	 M1251.9,2448.2C594.2,2448.2,61.1,1915,61.1,1257.4S594.2,66.6,1251.9,66.6s1190.8,533.2,1190.8,1190.8
	S1909.6,2448.2,1251.9,2448.2z"/>
<path class="st1" d="M207.6,947.4c0-277.5,98.2-514.4,294.5-710.8C698.5,40.3,935.4-57.9,1212.9-57.9
	c277.4,0,514.4,98.2,710.8,294.5C2120,433,2218.2,669.9,2218.2,947.4s-98.2,514.4-294.5,710.8s-433.2,294.5-710.8,294.5
	s-514.4-98.2-710.8-294.5C305.8,1461.8,207.6,1224.8,207.6,947.4z M256.8,953.4c0,246.1,109.7,506.3,285.1,681.7
	S968.3,1911,1214.4,1911s496.8-100.2,672.2-275.6c175.4-175.4,285.4-436,285.4-682c0-246.1-125.4-521.4-300.8-696.8
	C1695.9,81.1,1460.4-4.3,1214.3-4.3S699.7,113.9,524.3,289.3C348.9,464.7,256.8,707.3,256.8,953.4z M600.3,1163.4
	c-5.2-5.2-5.2-10.5,0-15.7c10.5-10.5,23.6-14.4,39.2-11.7c15.7,2.7,24.8,5.2,27.5,7.9c18.3,7.9,38.6,25.5,60.9,53
	c22.3,27.5,39.9,46.5,53,56.9c62.8,52.4,127,56.3,192.4,11.7c5.2-18.3,13.8-34,25.5-47.1c11.7-13.1,22.9-22.3,33.4-27.5
	s28.8-13.1,55-23.6c-86.4-7.9-156.4-22.9-210.1-45.2c-53.6-22.3-96.2-50.4-127.6-84.4c-41.9-47.1-67.4-108.6-76.6-184.6
	s-3.3-145.3,17.7-208.1c15.7-39.2,38-74.6,66.7-106c-20.9-65.5-17-140.1,11.7-223.8c83.8,5.2,159.7,34,227.7,86.4
	c130.9-34,267-35.3,408.4-3.9c18.3-13.1,46.5-29.4,84.4-49.1c38-19.6,85.7-30.7,143.3-33.4c10.5,28.8,17.7,62.8,21.6,102.1
	c3.9,39.3,1.9,75.9-5.9,109.9c60.2,62.8,91.6,146.6,94.3,251.3c0,83.8-14.4,153.1-43.2,208.1c-28.8,55-79.9,100.8-153.1,137.4
	c-49.7,23.6-115.2,38-196.3,43.2c36.7,18.3,63.5,37.3,80.5,56.9c17,19.6,28.1,50.4,33.4,92.2v123.7l3.9,119.7
	c7.9,13.1,17,24.2,27.5,33.4s19.6,15.7,27.5,19.6s10.5,9.8,7.9,17.7c-2.7,7.9-13.1,11.7-31.4,11.7c-44.5,0-79.9-15.7-106-47.1
	c-7.9-13.1-11.7-28.8-11.7-47.1v-188.5c0-20.9-5.2-36-15.7-45.2s-20.9-15-31.4-17.7v247.4c0,44.5,5.2,73.3,15.7,86.4
	s17,26.2,19.6,39.2c2.7,2.7,0.6,4.6-5.9,5.9c-6.5,1.3-17.7-0.6-33.4-5.9c-34-7.9-57.6-25.5-70.7-53s-19.6-56.9-19.6-88.4v-243.4
	h-51.1v243.4c0,31.4-6.5,61.5-19.6,90.3c-18.3,36.7-52.4,56.3-102.1,58.9c-7.9-2.7-11.7-5.2-11.7-7.9c2.7-2.7,10.5-15.7,23.6-39.2
	c2.7-5.2,5.9-15.7,9.8-31.4c3.9-15.7,5.9-34,5.9-55v-247.4c-10.5,2.7-20.3,8.5-29.4,17.7c-9.2,9.2-13.8,24.2-13.8,45.2V1548
	c0,18.3-3.9,34-11.7,47.1c-23.6,31.4-58.9,47.1-106,47.1c-18.3,0-28.8-3.9-31.4-11.7c-2.7-5.2-1.9-9.8,1.9-13.8s9.8-8.5,17.7-13.8
	c7.9-5.2,13.1-9.2,15.7-11.7c10.5-7.9,18.3-18.3,23.6-31.4c7.9-10.5,9.8-38,5.9-82.4s-4.6-73.3-1.9-86.4
	c-68,23.6-137.4,11.7-208.1-35.3c-20.9-20.9-41.9-51.1-62.8-90.3C678.8,1236.7,647.5,1202.7,600.3,1163.4L600.3,1163.4z"/>
</svg>
