<svg id="Layer_1" data-name="Layer 1" xmlns="http://www.w3.org/2000/svg" viewBox="0 0 82 82"><defs><style>.cls-1{fill:#fff;}</style></defs><title>instagram</title><path class="cls-1" d="M99.06,141a41,41,0,1,1,41-41A41,41,0,0,1,99.06,141Zm0-80a39,39,0,1,0,39,39A39,39,0,0,0,99.06,61Z" transform="translate(-58.06 -59)"/><path class="cls-1" d="M110.11,82H88a7,7,0,0,0-7,7V111a7,7,0,0,0,7,7h22.08a7,7,0,0,0,7-7V89A7,7,0,0,0,110.11,82Zm2,4.15h.79v6.1l-6.08,0,0-6.1ZM93.93,96.31a6.32,6.32,0,1,1-1.2,3.69A6.33,6.33,0,0,1,93.93,96.31ZM113.56,111a3.45,3.45,0,0,1-3.45,3.45H88A3.45,3.45,0,0,1,84.57,111V96.31h5.37a9.84,9.84,0,1,0,18.24,0h5.37Z" transform="translate(-58.06 -59)"/></svg>